
Format : AVI
Format/Info : Audio Video Interleave
File size : 1.29 GiB
Duration : 1h 38mn
Overall bit rate : 1 868 Kbps
Writing library : VirtualDub build 32842/release

Video
ID : 0
Format : MPEG-4 Visual
Format profile : Advanced Simple@L5
Format settings, BVOP : 2
Format settings, QPel : No
Format settings, GMC : No warppoints
Format settings, Matrix : Default (H.263)
Muxing mode : Packed bitstream
Codec ID : XVID
Codec ID/Hint : XviD
Duration : 1h 38mn
Bit rate : 1 731 Kbps
Width : 672 pixels
Height : 268 pixels
Display aspect ratio : 2.507
Frame rate : 23.976 fps
Color space : YUV
Chroma subsampling : 4:2:0
Bit depth : 8 bits
Scan type : Progressive
Compression mode : Lossy
Bits/(Pixel*Frame) : 0.401
Stream size : 1.19 GiB (93%)
Writing library : XviD 64

Audio
ID : 1
Format : MPEG Audio
Format version : Version 2
Format profile : Layer 3
Mode : Joint stereo
Mode extension : MS Stereo
Codec ID : 55
Codec ID/Hint : MP3
Duration : 1h 38mn
Bit rate mode : Constant
Bit rate : 128 Kbps
Channel(s) : 2 channels
Sampling rate : 24.0 KHz
Compression mode : Lossy
Stream size : 90.4 MiB (7%)
Alignment : Split accross interleaves
Interleave, duration : 42 ms (1.00 video frame)
Interleave, preload duration : 500 ms
Writing library : LAME3.98r
Encoding settings : -m j -V 4 -q 2 -lowpass 12 -b 128

 
http://www.imdb.com/title/tt0471042/


When a group of hard working guys find out they've fallen victim to a wealthy business man's Ponzi scheme, they conspire to rob his high-rise residence.
Stars: Eddie Murphy, Ben Stiller and Casey Affleck

 
http://img546.imageshack.us/img546/664/vlcsnap2011111310h44m04.png
 
http://img717.imageshack.us/img717/4680/vlcsnap2011111310h41m56.png
 
http://img51.imageshack.us/img51/4673/vlcsnap2011111310h41m33.png
 
http://img213.imageshack.us/img213/3350/vlcsnap2011111310h43m33.png
 
http://img197.imageshack.us/img197/8328/vlcsnap2011111310h43m53.png

Source Used


Video.............Germans ...................Thanks

Audio ..................MiSTERE ....................Thanks matey



Reason for READNFO is same as MiSTERE's LiNE is not the best in the world

Filtered the vid but thats blah blah blah so wont go into it so check out the sample included

Enjoy
